<?xml version="1.0" encoding="UTF-8"?>
<!-- Generated by Pixelmator Pro 3.4.3 -->
<svg width="1425" height="275" viewBox="0 0 1425 275" xmlns="http://www.w3.org/2000/svg">
    <path id="Rectangle" fill="#d5d5d5" fill-rule="evenodd" stroke="#d5d5d5" d="M 2 158 L 258 158 L 258 146 L 2 146 Z"/>
    <path id="Path" fill="#000000" fill-rule="evenodd" stroke="#000000" d="M 17 219 L 56 16 L 131 184 L 208 16 L 226.36554 120.493576 C 226.36554 120.493576 219.211151 116.537491 210 118 C 201.538132 119.343536 196.035477 127.237534 196.035477 127.237534 L 194 118 L 130 259 L 68 119 L 50 219 Z"/>
    <path id="Ellipse" fill="#dc143c" fill-rule="evenodd" stroke="#dc143c" d="M 242 151.5 C 242 137.969025 231.030975 127 217.5 127 C 203.969025 127 193 137.969025 193 151.5 C 193 165.030975 203.969025 176 217.5 176 C 231.030975 176 242 165.030975 242 151.5 Z"/>
    <path id="Ellipse-copy" fill="#dc143c" fill-rule="evenodd" stroke="#dc143c" d="M 241 151.5 C 241 137.969025 230.030975 127 216.5 127 C 202.969025 127 192 137.969025 192 151.5 C 192 165.030975 202.969025 176 216.5 176 C 230.030975 176 241 165.030975 241 151.5 Z"/>
    <path id="Markerbench" fill="#000000" fill-rule="evenodd" stroke="none" d="M 1407.875 189 L 1399.5 189 L 1406.875 146.875 L 1372.625 146.875 L 1365.375 189 L 1356.875 189 L 1372.25 100.5 L 1380.75 100.5 L 1373.875 139.375 L 1408 139.375 L 1414.75 100.5 L 1423.25 100.5 Z M 1315.875 114.125 C 1312.958374 108.791641 1308.458374 106.125 1302.375 106.125 C 1299.291626 106.125 1296.416626 106.895828 1293.75 108.4375 C 1291.083374 109.979172 1288.645874 112.062485 1286.4375 114.6875 C 1284.229126 117.312515 1282.291626 120.374985 1280.625 123.875 C 1278.958374 127.375015 1277.541626 131.062485 1276.375 134.9375 C 1275.208374 138.812515 1274.333374 142.749969 1273.75 146.75 C 1273.166626 150.750031 1272.875 154.583313 1272.875 158.25 C 1272.875 161.750015 1273.166626 165.020813 1273.75 168.0625 C 1274.333374 171.104187 1275.270874 173.75 1276.5625 176 C 1277.854126 178.25 1279.5625 180.020828 1281.6875 181.3125 C 1283.8125 182.604172 1286.416626 183.25 1289.5 183.25 C 1293.166626 183.25 1296.375 182.333344 1299.125 180.5 C 1301.875 178.666656 1304.208374 176.541687 1306.125 174.125 L 1310.75 179.75 C 1307.916626 183.166687 1304.666626 185.916656 1301 188 C 1297.333374 190.083344 1293 191.125 1288 191.125 C 1284 191.125 1280.5 190.333344 1277.5 188.75 C 1274.5 187.166656 1271.979126 184.937515 1269.9375 182.0625 C 1267.895874 179.187485 1266.375 175.770844 1265.375 171.8125 C 1264.375 167.854156 1263.875 163.500031 1263.875 158.75 C 1263.875 151.499969 1264.8125 144.291702 1266.6875 137.125 C 1268.5625 129.958298 1271.229126 123.500031 1274.6875 117.75 C 1278.145874 111.999969 1282.291626 107.333359 1287.125 103.75 C 1291.958374 100.166641 1297.333252 98.375 1303.25 98.375 C 1307.583374 98.375 1311.354126 99.208328 1314.5625 100.875 C 1317.770874 102.541672 1320.333374 105.083313 1322.25 108.5 Z M 1205.25 189 L 1194.875 189 L 1176.5 115 L 1176.25 115 L 1163.5 189 L 1155.625 189 L 1171 100.5 L 1181.5 100.5 L 1199.375 174.5 L 1199.75 174.5 L 1212.75 100.5 L 1220.625 100.5 Z M 1116.875 108 L 1090.5 108 L 1085 139.5 L 1110.125 139.5 L 1108.875 146.625 L 1083.875 146.625 L 1077.875 181.375 L 1106.25 181.375 L 1104.875 189 L 1068.375 189 L 1083.75 100.5 L 1118.125 100.5 Z M 1025.625 119.125 C 1025.625 122.458344 1025.1875 125.437485 1024.3125 128.0625 C 1023.4375 130.687515 1022.25 132.958328 1020.75 134.875 C 1019.25 136.791672 1017.520813 138.395828 1015.5625 139.6875 C 1013.604187 140.979172 1011.541687 141.916656 1009.375 142.5 L 1009.375 142.75 C 1010.791687 143 1012.25 143.541656 1013.75 144.375 C 1015.25 145.208344 1016.604187 146.354156 1017.8125 147.8125 C 1019.020813 149.270844 1020 151.041656 1020.75 153.125 C 1021.5 155.208344 1021.875 157.624985 1021.875 160.375 C 1021.875 165.291687 1021.104187 169.541656 1019.5625 173.125 C 1018.020813 176.708344 1015.958374 179.687485 1013.375 182.0625 C 1010.791626 184.437515 1007.8125 186.1875 1004.4375 187.3125 C 1001.0625 188.4375 997.583374 189 994 189 L 971.875 189 L 987.25 100.5 L 1005.75 100.5 C 1008.416687 100.5 1010.958313 100.854156 1013.375 101.5625 C 1015.791687 102.270844 1017.895813 103.395828 1019.6875 104.9375 C 1021.479187 106.479172 1022.916687 108.416656 1024 110.75 C 1025.083252 113.083344 1025.625 115.874985 1025.625 119.125 Z M 1013.5 160.375 C 1013.5 157.874985 1013.083313 155.729187 1012.25 153.9375 C 1011.416687 152.145813 1010.333313 150.666672 1009 149.5 C 1007.666687 148.333328 1006.145813 147.479172 1004.4375 146.9375 C 1002.729187 146.395828 1001 146.125 999.25 146.125 L 987.25 146.125 L 981.125 181.75 L 993.375 181.75 C 999.291687 181.75 1004.125 179.895844 1007.875 176.1875 C 1011.625 172.479156 1013.5 167.208374 1013.5 160.375 Z M 1017.25 120.125 C 1017.25 115.874985 1015.979187 112.750015 1013.4375 110.75 C 1010.895813 108.749985 1007.625 107.75 1003.625 107.75 L 994 107.75 L 988.5 139.375 L 999.625 139.375 C 1001.875 139.375 1004.0625 138.958344 1006.1875 138.125 C 1008.3125 137.291656 1010.1875 136.062515 1011.8125 134.4375 C 1013.4375 132.812485 1014.75 130.812515 1015.75 128.4375 C 1016.75 126.062485 1017.25 123.291687 1017.25 120.125 Z M 931.625 120.25 C 931.625 124.000015 931.104187 127.395813 930.0625 130.4375 C 929.020813 133.479187 927.583313 136.124985 925.75 138.375 C 923.916687 140.625015 921.791687 142.479156 919.375 143.9375 C 916.958313 145.395844 914.333374 146.375 911.5 146.875 L 923.5 189 L 914.875 189 L 903.5 147.875 L 891.875 147.875 L 884.75 189 L 876.5 189 L 891.875 100.5 L 911 100.5 C 917.250061 100.5 922.25 102.104156 926 105.3125 C 929.75 108.520844 931.625 113.499969 931.625 120.25 Z M 923.5 121.25 C 923.5 116.583313 922.1875 113.166672 919.5625 111 C 916.9375 108.833328 913.625 107.75 909.625 107.75 L 898.875 107.75 L 893.125 141.125 L 904.875 141.125 C 907.625 141.125 910.125 140.666672 912.375 139.75 C 914.625 138.833328 916.583313 137.500015 918.25 135.75 C 919.916687 133.999985 921.208313 131.895844 922.125 129.4375 C 923.041687 126.979156 923.5 124.250015 923.5 121.25 Z M 837.75 108 L 811.375 108 L 805.875 139.5 L 831 139.5 L 829.75 146.625 L 804.75 146.625 L 798.75 181.375 L 827.125 181.375 L 825.75 189 L 789.25 189 L 804.625 100.5 L 839 100.5 Z M 718 142.125 L 741.75 189 L 732.25 189 L 709.875 143.5 L 709.625 143.5 L 701.75 189 L 693.5 189 L 708.875 100.5 L 717.125 100.5 L 710.25 140.375 L 710.5 140.375 L 745.25 100.5 L 755.25 100.5 Z M 653.25 120.25 C 653.25 124.000015 652.729187 127.395813 651.6875 130.4375 C 650.645813 133.479187 649.208313 136.124985 647.375 138.375 C 645.541687 140.625015 643.416687 142.479156 641 143.9375 C 638.583313 145.395844 635.958374 146.375 633.125 146.875 L 645.125 189 L 636.5 189 L 625.125 147.875 L 613.5 147.875 L 606.375 189 L 598.125 189 L 613.5 100.5 L 632.625 100.5 C 638.875061 100.5 643.875 102.104156 647.625 105.3125 C 651.375 108.520844 653.25 113.499969 653.25 120.25 Z M 645.125 121.25 C 645.125 116.583313 643.8125 113.166672 641.1875 111 C 638.5625 108.833328 635.25 107.75 631.25 107.75 L 620.5 107.75 L 614.75 141.125 L 626.5 141.125 C 629.25 141.125 631.75 140.666672 634 139.75 C 636.25 138.833328 638.208313 137.500015 639.875 135.75 C 641.541687 133.999985 642.833313 131.895844 643.75 129.4375 C 644.666687 126.979156 645.125 124.250015 645.125 121.25 Z M 541.75 189 L 540.75 166.75 L 513.125 166.75 L 503.125 189 L 494.375 189 L 534.375 100.5 L 545.875 100.5 L 550.375 189 Z M 538.875 108.25 L 538.375 108.25 L 515.75 160 L 540.75 160 Z M 447.5 189 L 439.125 189 L 452.5 112.375 L 452.125 112.375 L 417 189 L 408.75 189 L 400.75 112.375 L 400.375 112.375 L 387 189 L 379.125 189 L 394.625 100.5 L 407.375 100.5 L 415.125 174.875 L 415.625 174.75 L 449.5 100.5 L 463 100.5 Z"/>
</svg>
