<?xml version="1.0" encoding="UTF-8"?>
<!-- Generated by Pixelmator Pro 3.4.3 -->
<svg width="260" height="252" viewBox="0 0 260 252" xmlns="http://www.w3.org/2000/svg">
    <path id="Rectangle-copy" fill="#d5d5d5" fill-rule="evenodd" stroke="#d5d5d5" d="M 2 147 L 258 147 L 258 135 L 2 135 Z"/>
    <path id="Path-copy" fill="#000000" fill-rule="evenodd" stroke="#000000" d="M 17 208 L 56 5 L 131 173 L 208 5 L 226.36554 109.493576 C 226.36554 109.493576 219.211151 105.537491 210 107 C 201.538132 108.343536 196.035477 116.237534 196.035477 116.237534 L 194 107 L 130 248 L 68 108 L 50 208 Z"/>
    <path id="Ellipse-copy-2" fill="#dc143c" fill-rule="evenodd" stroke="#dc143c" d="M 242 140.5 C 242 126.969025 231.030975 116 217.5 116 C 203.969025 116 193 126.969025 193 140.5 C 193 154.030975 203.969025 165 217.5 165 C 231.030975 165 242 154.030975 242 140.5 Z"/>
    <path id="Ellipse-copy" fill="#dc143c" fill-rule="evenodd" stroke="#dc143c" d="M 241 140.5 C 241 126.969025 230.030975 116 216.5 116 C 202.969025 116 192 126.969025 192 140.5 C 192 154.030975 202.969025 165 216.5 165 C 230.030975 165 241 154.030975 241 140.5 Z"/>
</svg>
