<?xml version="1.0" encoding="UTF-8"?>
<!-- Generated by Pixelmator Pro 3.4.3 -->
<svg width="256" height="244" viewBox="0 0 256 244" xmlns="http://www.w3.org/2000/svg">
    <path id="Rectangle" fill="#d5d5d5" fill-rule="evenodd" stroke="#d5d5d5" d="M 0 204 L 256 204 L 256 192 L 0 192 Z"/>
    <path id="Path" fill="#000000" fill-rule="evenodd" stroke="#000000" d="M 15 204 L 54 1 L 129 169 L 206 1 L 235 166 C 235 166 228.211151 163.537491 219 165 C 210.538132 166.343536 204 172 204 172 L 192 103 L 128 244 L 66 104 L 48 204 L 15 204 Z"/>
    <path id="Ellipse" fill="#dc143c" fill-rule="evenodd" stroke="#dc143c" d="M 249 198.5 C 249 184.969025 238.030975 174 224.5 174 C 210.969025 174 200 184.969025 200 198.5 C 200 212.030975 210.969025 223 224.5 223 C 238.030975 223 249 212.030975 249 198.5 Z"/>
</svg>
