<?xml version="1.0" encoding="UTF-8"?>
<!-- Generated by Pixelmator Pro 3.4.3 -->
<svg width="1421" height="243" viewBox="0 0 1421 243" xmlns="http://www.w3.org/2000/svg">
    <path id="Rectangle" fill="#d5d5d5" fill-rule="evenodd" stroke="#d5d5d5" d="M 0 203 L 256 203 L 256 191 L 0 191 Z"/>
    <path id="Path" fill="#000000" fill-rule="evenodd" stroke="#000000" d="M 15 203 L 54 0 L 129 168 L 206 0 L 235 165 C 235 165 228.211151 162.537491 219 164 C 210.538132 165.343536 204 171 204 171 L 192 102 L 128 243 L 66 103 L 48 203 L 15 203 Z"/>
    <path id="Ellipse" fill="#dc143c" fill-rule="evenodd" stroke="#dc143c" d="M 249 197.5 C 249 183.969025 238.030975 173 224.5 173 C 210.969025 173 200 183.969025 200 197.5 C 200 211.030975 210.969025 222 224.5 222 C 238.030975 222 249 211.030975 249 197.5 Z"/>
    <path id="Markerbench" fill="#000000" fill-rule="evenodd" stroke="none" d="M 1405.875 162 L 1397.5 162 L 1404.875 119.875 L 1370.625 119.875 L 1363.375 162 L 1354.875 162 L 1370.25 73.5 L 1378.75 73.5 L 1371.875 112.375 L 1406 112.375 L 1412.75 73.5 L 1421.25 73.5 Z M 1313.875 87.125 C 1310.958374 81.791641 1306.458374 79.125 1300.375 79.125 C 1297.291626 79.125 1294.416626 79.895828 1291.75 81.4375 C 1289.083374 82.979172 1286.645874 85.062485 1284.4375 87.6875 C 1282.229126 90.312515 1280.291626 93.374985 1278.625 96.875 C 1276.958374 100.375015 1275.541626 104.062485 1274.375 107.9375 C 1273.208374 111.812515 1272.333374 115.749977 1271.75 119.75 C 1271.166626 123.750023 1270.875 127.583313 1270.875 131.25 C 1270.875 134.750015 1271.166626 138.020813 1271.75 141.0625 C 1272.333374 144.104187 1273.270874 146.75 1274.5625 149 C 1275.854126 151.25 1277.5625 153.020828 1279.6875 154.3125 C 1281.8125 155.604172 1284.416626 156.25 1287.5 156.25 C 1291.166626 156.25 1294.375 155.333344 1297.125 153.5 C 1299.875 151.666656 1302.208374 149.541687 1304.125 147.125 L 1308.75 152.75 C 1305.916626 156.166687 1302.666626 158.916656 1299 161 C 1295.333374 163.083344 1291 164.125 1286 164.125 C 1282 164.125 1278.5 163.333344 1275.5 161.75 C 1272.5 160.166656 1269.979126 157.937515 1267.9375 155.0625 C 1265.895874 152.187485 1264.375 148.770844 1263.375 144.8125 C 1262.375 140.854156 1261.875 136.500031 1261.875 131.75 C 1261.875 124.499962 1262.8125 117.291702 1264.6875 110.125 C 1266.5625 102.958298 1269.229126 96.500031 1272.6875 90.75 C 1276.145874 84.999969 1280.291626 80.333359 1285.125 76.75 C 1289.958374 73.166641 1295.333252 71.375 1301.25 71.375 C 1305.583374 71.375 1309.354126 72.208328 1312.5625 73.875 C 1315.770874 75.541672 1318.333374 78.083313 1320.25 81.5 Z M 1203.25 162 L 1192.875 162 L 1174.5 88 L 1174.25 88 L 1161.5 162 L 1153.625 162 L 1169 73.5 L 1179.5 73.5 L 1197.375 147.5 L 1197.75 147.5 L 1210.75 73.5 L 1218.625 73.5 Z M 1114.875 81 L 1088.5 81 L 1083 112.5 L 1108.125 112.5 L 1106.875 119.625 L 1081.875 119.625 L 1075.875 154.375 L 1104.25 154.375 L 1102.875 162 L 1066.375 162 L 1081.75 73.5 L 1116.125 73.5 Z M 1023.625 92.125 C 1023.625 95.458344 1023.1875 98.437485 1022.3125 101.0625 C 1021.4375 103.687515 1020.25 105.958328 1018.75 107.875 C 1017.25 109.791672 1015.520813 111.395828 1013.5625 112.6875 C 1011.604187 113.979172 1009.541687 114.916656 1007.375 115.5 L 1007.375 115.75 C 1008.791687 116 1010.25 116.541664 1011.75 117.375 C 1013.25 118.208336 1014.604187 119.354156 1015.8125 120.8125 C 1017.020813 122.270844 1018 124.041656 1018.75 126.125 C 1019.5 128.208344 1019.875 130.624985 1019.875 133.375 C 1019.875 138.291687 1019.104187 142.541656 1017.5625 146.125 C 1016.020813 149.708344 1013.958374 152.687485 1011.375 155.0625 C 1008.791626 157.437515 1005.8125 159.1875 1002.4375 160.3125 C 999.0625 161.4375 995.583374 162 992 162 L 969.875 162 L 985.25 73.5 L 1003.75 73.5 C 1006.416687 73.5 1008.958313 73.854156 1011.375 74.5625 C 1013.791687 75.270844 1015.895813 76.395828 1017.6875 77.9375 C 1019.479187 79.479172 1020.916687 81.416656 1022 83.75 C 1023.083313 86.083344 1023.625 88.874985 1023.625 92.125 Z M 1011.5 133.375 C 1011.5 130.874985 1011.083313 128.729187 1010.25 126.9375 C 1009.416687 125.145821 1008.333313 123.666672 1007 122.5 C 1005.666687 121.333328 1004.145813 120.479172 1002.4375 119.9375 C 1000.729187 119.395828 999 119.125 997.25 119.125 L 985.25 119.125 L 979.125 154.75 L 991.375 154.75 C 997.291687 154.75 1002.125 152.895844 1005.875 149.1875 C 1009.625 145.479156 1011.5 140.208374 1011.5 133.375 Z M 1015.25 93.125 C 1015.25 88.874985 1013.979187 85.750015 1011.4375 83.75 C 1008.895813 81.749985 1005.625 80.75 1001.625 80.75 L 992 80.75 L 986.5 112.375 L 997.625 112.375 C 999.875 112.375 1002.0625 111.958344 1004.1875 111.125 C 1006.3125 110.291656 1008.1875 109.062515 1009.8125 107.4375 C 1011.4375 105.812485 1012.75 103.812515 1013.75 101.4375 C 1014.75 99.062485 1015.25 96.291687 1015.25 93.125 Z M 929.625 93.25 C 929.625 97.000015 929.104187 100.395813 928.0625 103.4375 C 927.020813 106.479187 925.583313 109.124985 923.75 111.375 C 921.916687 113.625015 919.791687 115.479156 917.375 116.9375 C 914.958313 118.395844 912.333374 119.375 909.5 119.875 L 921.5 162 L 912.875 162 L 901.5 120.875 L 889.875 120.875 L 882.75 162 L 874.5 162 L 889.875 73.5 L 909 73.5 C 915.250061 73.5 920.25 75.104156 924 78.3125 C 927.75 81.520844 929.625 86.499969 929.625 93.25 Z M 921.5 94.25 C 921.5 89.583313 920.1875 86.166672 917.5625 84 C 914.9375 81.833328 911.625 80.75 907.625 80.75 L 896.875 80.75 L 891.125 114.125 L 902.875 114.125 C 905.625 114.125 908.125 113.666672 910.375 112.75 C 912.625 111.833328 914.583313 110.500015 916.25 108.75 C 917.916687 106.999985 919.208313 104.895844 920.125 102.4375 C 921.041687 99.979156 921.5 97.250015 921.5 94.25 Z M 835.75 81 L 809.375 81 L 803.875 112.5 L 829 112.5 L 827.75 119.625 L 802.75 119.625 L 796.75 154.375 L 825.125 154.375 L 823.75 162 L 787.25 162 L 802.625 73.5 L 837 73.5 Z M 716 115.125 L 739.75 162 L 730.25 162 L 707.875 116.5 L 707.625 116.5 L 699.75 162 L 691.5 162 L 706.875 73.5 L 715.125 73.5 L 708.25 113.375 L 708.5 113.375 L 743.25 73.5 L 753.25 73.5 Z M 651.25 93.25 C 651.25 97.000015 650.729187 100.395813 649.6875 103.4375 C 648.645813 106.479187 647.208313 109.124985 645.375 111.375 C 643.541687 113.625015 641.416687 115.479156 639 116.9375 C 636.583313 118.395844 633.958374 119.375 631.125 119.875 L 643.125 162 L 634.5 162 L 623.125 120.875 L 611.5 120.875 L 604.375 162 L 596.125 162 L 611.5 73.5 L 630.625 73.5 C 636.875061 73.5 641.875 75.104156 645.625 78.3125 C 649.375 81.520844 651.25 86.499969 651.25 93.25 Z M 643.125 94.25 C 643.125 89.583313 641.8125 86.166672 639.1875 84 C 636.5625 81.833328 633.25 80.75 629.25 80.75 L 618.5 80.75 L 612.75 114.125 L 624.5 114.125 C 627.25 114.125 629.75 113.666672 632 112.75 C 634.25 111.833328 636.208313 110.500015 637.875 108.75 C 639.541687 106.999985 640.833313 104.895844 641.75 102.4375 C 642.666687 99.979156 643.125 97.250015 643.125 94.25 Z M 539.75 162 L 538.75 139.75 L 511.125 139.75 L 501.125 162 L 492.375 162 L 532.375 73.5 L 543.875 73.5 L 548.375 162 Z M 536.875 81.25 L 536.375 81.25 L 513.75 133 L 538.75 133 Z M 445.5 162 L 437.125 162 L 450.5 85.375 L 450.125 85.375 L 415 162 L 406.75 162 L 398.75 85.375 L 398.375 85.375 L 385 162 L 377.125 162 L 392.625 73.5 L 405.375 73.5 L 413.125 147.875 L 413.625 147.75 L 447.5 73.5 L 461 73.5 Z"/>
</svg>
