<?xml version="1.0" standalone="no"?>
<!DOCTYPE svg PUBLIC "-//W3C//DTD SVG 20010904//EN"
 "http://www.w3.org/TR/2001/REC-SVG-20010904/DTD/svg10.dtd">
<svg version="1.0" xmlns="http://www.w3.org/2000/svg"
 width="520.000000pt" height="520.000000pt" viewBox="0 0 520.000000 520.000000"
 preserveAspectRatio="xMidYMid meet">
<metadata>
Created by potrace 1.14, written by Peter Selinger 2001-2017
</metadata>
<g transform="translate(0.000000,520.000000) scale(0.100000,-0.100000)"
fill="#000000" stroke="none">
<path d="M1101 4978 c-20 -107 -21 -112 -27 -147 -8 -49 -13 -70 -18 -89 -3
-9 -7 -33 -10 -52 -3 -19 -8 -46 -11 -60 -2 -14 -21 -108 -41 -210 -20 -102
-37 -192 -39 -201 -2 -9 -6 -32 -9 -50 -3 -19 -19 -104 -36 -189 -17 -85 -33
-171 -36 -190 -3 -19 -7 -43 -10 -52 -3 -10 -7 -28 -9 -40 -2 -13 -7 -36 -10
-53 -3 -16 -8 -46 -11 -65 -3 -19 -7 -42 -10 -50 -3 -8 -7 -28 -10 -45 -2 -16
-10 -64 -19 -105 -8 -41 -17 -88 -20 -105 -7 -45 -14 -75 -19 -93 -3 -9 -8
-35 -11 -57 -13 -87 -15 -100 -21 -117 -3 -10 -7 -30 -10 -45 -5 -27 -37 -198
-49 -258 -3 -16 -16 -84 -28 -150 l-22 -120 -293 -3 -292 -2 0 -130 0 -130
266 0 267 0 -7 -32 c-4 -18 -13 -67 -21 -108 -8 -41 -17 -88 -20 -105 -11 -60
-26 -141 -31 -165 -2 -14 -9 -48 -15 -76 -5 -28 -12 -61 -14 -75 -3 -13 -9
-46 -15 -74 -6 -27 -12 -61 -14 -75 -2 -14 -6 -38 -10 -55 -3 -16 -8 -41 -11
-55 -3 -14 -7 -36 -10 -50 -3 -14 -7 -36 -10 -50 -3 -14 -7 -36 -10 -50 -3
-14 -7 -38 -10 -55 -2 -16 -7 -41 -10 -55 -10 -43 -25 -122 -25 -131 0 -5 153
-9 339 -9 l339 0 11 63 c7 34 14 71 16 82 2 11 6 38 10 60 3 22 8 47 10 55 3
8 7 32 11 54 3 21 8 48 10 60 2 11 7 35 9 51 3 17 10 55 16 85 6 30 13 69 15
85 8 47 24 138 29 165 3 14 7 39 10 55 2 17 6 41 9 55 10 47 16 75 21 110 3
19 8 42 10 50 2 8 7 35 11 60 20 147 -13 131 260 128 l235 -3 100 -225 c54
-124 103 -234 108 -245 30 -64 71 -157 71 -160 0 -2 15 -36 34 -77 39 -85 69
-151 71 -158 0 -3 11 -27 23 -54 12 -27 22 -50 22 -51 0 -2 20 -46 45 -99 25
-53 45 -99 45 -101 0 -4 12 -31 68 -155 9 -19 17 -37 17 -40 1 -3 14 -32 29
-65 15 -33 31 -69 36 -80 4 -11 19 -45 33 -75 14 -30 32 -71 40 -91 9 -19 30
-66 47 -105 32 -69 52 -115 55 -124 1 -3 11 -25 22 -50 11 -25 22 -52 25 -60
4 -9 20 16 44 65 20 44 38 82 38 85 1 3 11 26 24 52 54 117 63 138 60 141 -2
2 2 10 8 18 7 8 42 82 79 164 37 83 84 187 106 233 21 46 39 85 39 87 0 2 23
51 50 110 28 59 50 108 50 110 0 2 17 41 39 87 45 96 78 169 174 383 25 55 62
136 82 180 21 44 48 105 62 135 13 30 36 81 50 113 l27 57 165 -2 c102 -2 166
-7 166 -13 0 -33 67 -138 124 -196 125 -125 297 -175 473 -138 146 31 286 142
349 277 l34 72 167 0 168 0 0 130 0 130 -168 0 -168 0 -13 45 c-15 51 -75 146
-117 187 -105 101 -217 146 -364 146 -150 0 -255 -43 -360 -148 -64 -63 -130
-172 -130 -213 0 -15 -12 -17 -100 -17 -74 0 -100 3 -100 13 0 7 13 40 30 74
29 58 72 153 75 163 2 7 66 147 96 210 30 61 27 64 49 -52 13 -65 20 -66 65
-9 28 36 90 84 145 111 77 40 233 46 330 12 30 -10 62 -21 70 -23 8 -2 19 -8
23 -14 5 -5 5 8 2 30 -11 64 -21 118 -36 200 -6 33 -12 69 -14 80 -1 11 -5 34
-8 50 -4 17 -18 98 -32 180 -14 83 -30 175 -36 205 -5 30 -12 69 -14 85 -3 17
-7 41 -10 55 -3 14 -7 39 -10 55 -8 48 -14 79 -19 102 -2 11 -8 43 -12 70 -3
26 -8 57 -11 68 -5 22 -8 41 -18 100 -3 22 -15 90 -27 150 -11 61 -21 121 -23
135 -2 14 -6 41 -10 60 -21 122 -46 259 -50 280 -3 14 -8 40 -11 59 -3 18 -7
42 -9 51 -2 10 -7 39 -10 64 -6 38 -10 44 -21 35 -8 -6 -14 -15 -14 -20 0 -9
-26 -69 -101 -227 -27 -57 -49 -106 -49 -108 0 -3 -15 -38 -34 -77 -46 -96
-99 -211 -101 -217 -2 -9 -125 -275 -194 -423 -22 -48 -41 -89 -41 -92 0 -2
-20 -46 -44 -97 -63 -135 -200 -434 -233 -508 -38 -87 -48 -105 -57 -112 -6
-4 -8 -8 -4 -8 4 0 -14 -44 -39 -97 -104 -223 -132 -286 -203 -445 l-75 -167
-340 -1 -340 0 -12 27 c-7 15 -13 31 -13 35 0 4 -18 45 -39 90 -22 46 -46 99
-54 118 -9 19 -31 69 -50 110 -19 41 -49 109 -67 150 -17 41 -46 104 -62 140
-28 59 -49 107 -53 120 -1 3 -11 25 -22 50 -11 25 -67 149 -123 275 -56 127
-112 253 -125 280 -13 28 -62 138 -110 245 -47 107 -96 215 -107 240 -11 25
-29 64 -39 88 -11 23 -29 63 -41 90 -12 26 -22 49 -23 52 -1 3 -8 21 -17 40
-8 19 -34 76 -56 125 -22 50 -53 119 -69 155 -16 36 -40 91 -54 122 -13 32
-27 58 -30 58 -3 0 -11 -28 -18 -62z m289 -2104 c0 -6 6 -24 14 -40 8 -16 24
-51 36 -79 12 -27 33 -74 46 -103 13 -29 24 -54 24 -57 0 -2 16 -38 35 -79 19
-42 35 -78 35 -81 0 -3 -69 -4 -152 -3 -130 3 -152 5 -149 18 2 8 5 29 7 45 3
17 7 41 11 55 3 14 7 35 9 48 1 12 7 46 13 75 6 28 13 70 16 92 3 22 11 66 17
97 10 49 13 54 25 40 7 -9 13 -22 13 -28z m1441 -726 c-9 -22 -23 -54 -102
-228 -22 -47 -54 -117 -72 -157 -17 -40 -34 -72 -37 -72 -3 0 -34 66 -69 147
-113 257 -122 277 -131 294 -6 10 -10 22 -10 28 0 6 76 10 215 10 l215 0 -9
-22z"/>
</g>
</svg>
