<?xml version="1.0" standalone="no"?>
<!DOCTYPE svg PUBLIC "-//W3C//DTD SVG 20010904//EN"
 "http://www.w3.org/TR/2001/REC-SVG-20010904/DTD/svg10.dtd">
<svg version="1.0" xmlns="http://www.w3.org/2000/svg"
 width="1024.000000pt" height="1024.000000pt" viewBox="0 0 1024.000000 1024.000000"
 preserveAspectRatio="xMidYMid meet">
<metadata>
Created by potrace 1.14, written by Peter Selinger 2001-2017
</metadata>
<g transform="translate(0.000000,1024.000000) scale(0.100000,-0.100000)"
fill="#000000" stroke="none">
<path d="M2145 9980 c2 -11 0 -22 -4 -24 -4 -3 -8 -21 -9 -42 -2 -20 -6 -42
-9 -48 -4 -6 -8 -17 -9 -26 -1 -14 -7 -47 -19 -112 -3 -16 -7 -39 -9 -53 -3
-14 -7 -33 -10 -43 -3 -9 -7 -33 -10 -52 -5 -29 -39 -210 -61 -317 -3 -15 -8
-40 -10 -55 -10 -55 -16 -93 -20 -113 -24 -111 -30 -141 -40 -200 -13 -73 -25
-132 -30 -155 -4 -14 -8 -36 -10 -50 -3 -31 -14 -90 -20 -110 -2 -8 -7 -31
-10 -50 -3 -19 -17 -91 -31 -160 -14 -69 -27 -136 -29 -150 -2 -14 -6 -36 -9
-50 -3 -14 -8 -37 -10 -52 -3 -15 -12 -63 -20 -105 -9 -43 -18 -89 -20 -103
-3 -14 -7 -34 -9 -45 -3 -11 -8 -40 -13 -65 -4 -25 -8 -47 -9 -50 -1 -3 -5
-25 -9 -50 -5 -25 -10 -54 -13 -65 -2 -11 -6 -31 -8 -45 -2 -14 -7 -36 -10
-50 -3 -14 -8 -41 -11 -60 -3 -19 -7 -43 -10 -52 -3 -10 -7 -30 -10 -45 -2
-16 -8 -48 -14 -73 -5 -25 -12 -63 -16 -85 -4 -22 -8 -47 -10 -55 -4 -23 -17
-84 -19 -90 -3 -9 -19 -105 -20 -120 -1 -8 -5 -22 -8 -30 -3 -8 -8 -31 -11
-50 -2 -19 -5 -35 -6 -35 -1 0 -4 -11 -5 -25 -4 -28 -10 -59 -30 -160 -3 -14
-8 -38 -10 -55 -3 -16 -8 -43 -12 -60 -3 -16 -7 -39 -9 -50 -4 -30 -13 -72
-29 -150 -14 -71 -50 -258 -59 -307 -2 -15 -12 -63 -20 -105 -9 -43 -18 -89
-20 -103 -3 -14 -7 -35 -10 -46 -2 -12 -7 -37 -10 -55 -3 -19 -8 -44 -10 -55
-2 -12 -7 -37 -10 -55 -3 -19 -8 -45 -11 -59 -3 -14 -8 -38 -11 -55 -3 -16
-25 -131 -49 -255 -58 -295 -57 -292 -59 -315 -1 -11 -4 -24 -8 -30 -3 -5 -9
-32 -12 -60 -4 -27 -9 -57 -11 -65 -2 -8 -7 -28 -10 -45 -5 -29 -8 -48 -20
-105 -2 -14 -7 -40 -10 -59 -3 -19 -7 -37 -9 -40 -2 -3 -7 -26 -10 -51 -3 -25
-9 -56 -12 -70 -9 -42 -23 -116 -29 -150 -2 -14 -7 -36 -10 -50 -3 -14 -8 -41
-11 -60 -3 -19 -7 -43 -10 -52 -3 -10 -7 -30 -10 -45 -2 -16 -13 -73 -24 -128
-26 -128 -27 -136 -34 -176 -3 -19 -8 -45 -11 -59 -3 -14 -8 -36 -10 -50 -2
-14 -9 -50 -15 -80 -6 -30 -13 -71 -16 -90 -3 -19 -8 -44 -11 -55 -3 -11 -7
-29 -9 -40 -3 -20 -10 -57 -19 -105 -12 -59 -15 -77 -20 -102 -3 -15 -14 -73
-25 -128 -11 -55 -22 -113 -25 -128 -2 -15 -9 -49 -15 -77 -6 -27 -13 -66 -15
-85 -3 -19 -8 -42 -10 -50 -2 -8 -7 -28 -10 -45 -2 -16 -7 -41 -10 -55 -3 -14
-8 -41 -10 -60 -3 -19 -8 -46 -11 -60 -6 -24 -9 -42 -18 -95 -8 -44 -13 -46
-144 -46 -70 0 -134 0 -142 0 -8 0 -53 0 -100 1 -47 0 -133 0 -192 0 l-108 1
0 -261 0 -260 28 -1 c15 -1 32 0 37 1 6 1 15 2 20 2 6 0 114 -1 240 -1 127 0
246 0 265 -1 138 -5 350 -4 350 3 0 5 5 5 11 2 15 -10 389 -11 389 -2 0 5 5 5
11 1 16 -9 149 -11 149 -1 0 5 5 5 11 1 16 -9 149 -11 149 -1 0 5 5 5 11 1 16
-9 149 -11 149 -1 0 5 5 5 10 2 6 -4 118 -6 248 -5 130 1 242 1 247 1 14 0
456 0 475 0 8 0 125 0 259 -1 134 0 245 0 246 2 2 2 74 1 160 -2 86 -3 159 -2
162 3 2 4 8 5 12 3 6 -4 171 -7 286 -5 187 3 484 -4 480 -11 -3 -5 -1 -11 5
-15 6 -4 8 -11 5 -16 -4 -5 -2 -9 2 -9 5 0 15 -17 22 -37 8 -21 24 -60 36 -88
13 -27 32 -71 44 -97 11 -27 31 -69 43 -95 12 -27 23 -50 23 -53 2 -6 25 -59
93 -210 31 -69 55 -124 57 -130 1 -5 16 -38 62 -140 9 -19 17 -37 18 -40 5
-15 28 -67 49 -113 13 -29 41 -90 61 -137 21 -47 47 -105 58 -130 12 -25 21
-47 22 -50 0 -3 6 -15 13 -26 6 -12 9 -24 6 -26 -2 -3 2 -11 11 -18 8 -7 15
-18 15 -24 0 -7 11 -36 25 -64 19 -40 30 -52 48 -52 18 0 28 14 57 85 19 46
38 85 43 85 4 0 7 6 7 14 0 8 23 62 50 120 28 58 50 108 50 111 0 2 17 41 39
87 55 119 98 212 100 220 2 8 80 178 111 243 11 22 21 47 22 55 2 8 5 17 8 20
6 6 70 138 70 145 0 3 15 37 34 77 19 40 54 117 79 170 25 54 44 98 41 98 -2
0 3 11 12 25 15 23 23 26 78 26 34 -1 68 -1 76 0 11 0 683 1 800 0 20 0 460 0
480 0 60 0 469 0 485 0 11 0 70 0 130 0 l111 0 28 -83 c34 -99 99 -221 154
-290 22 -28 152 -159 177 -178 102 -78 238 -145 360 -176 91 -23 101 -25 230
-29 123 -4 242 11 318 40 20 8 37 12 37 8 0 -4 5 -2 12 5 7 7 20 12 30 12 10
0 18 5 18 10 0 6 8 10 17 10 18 0 134 66 193 109 60 44 231 221 213 221 -3 0
3 10 14 23 32 34 87 143 118 234 28 81 28 81 66 85 21 2 45 1 53 -2 8 -3 56
-4 105 -2 l91 3 0 259 0 259 -106 3 c-58 2 -113 0 -122 -3 -25 -9 -82 9 -83
26 -5 53 -94 226 -159 309 -17 23 -150 155 -174 174 -78 62 -208 131 -302 160
-130 41 -164 46 -309 46 -142 1 -216 -9 -298 -40 -20 -8 -39 -14 -42 -14 -35
-4 -147 -61 -233 -117 -76 -51 -252 -227 -252 -253 0 -5 -3 -10 -7 -10 -5 0
-13 -10 -19 -23 -6 -12 -24 -47 -40 -77 -17 -30 -41 -83 -53 -118 l-24 -62
-66 0 c-36 0 -73 -1 -81 -1 -8 0 -394 0 -858 0 -464 1 -847 -1 -851 -3 -4 -3
-13 -1 -21 4 -9 5 -19 5 -27 -2 -29 -23 -19 3 69 192 22 47 41 90 42 95 1 6
13 30 26 55 13 25 25 50 26 55 1 6 18 47 39 90 72 153 115 253 115 264 0 6 5
11 11 11 5 0 7 5 4 10 -3 6 -1 10 4 10 6 0 11 7 11 16 0 9 7 28 15 42 8 15 24
50 36 77 11 28 34 77 49 110 75 161 93 201 96 214 1 8 6 17 11 20 4 3 9 13 11
21 2 8 19 49 39 90 19 41 52 113 73 160 21 47 52 117 70 155 28 60 132 290
190 420 10 22 35 76 56 120 20 44 38 82 39 85 0 3 11 28 24 55 35 77 55 119
56 125 1 3 15 34 32 70 34 72 49 106 118 260 26 58 52 111 57 118 6 6 7 12 4
12 -4 0 0 12 8 28 9 15 43 88 77 162 33 74 69 153 79 175 10 22 28 61 40 87
24 53 39 68 39 41 0 -10 2 -29 5 -43 2 -14 7 -41 10 -60 3 -19 8 -46 11 -60 3
-14 8 -41 10 -60 3 -19 7 -46 10 -60 3 -14 7 -36 10 -50 6 -38 35 -211 41
-245 3 -16 7 -37 9 -45 2 -8 6 -31 9 -50 3 -19 7 -44 9 -55 9 -45 19 -102 23
-130 3 -16 7 -39 9 -50 2 -11 6 -40 10 -65 4 -25 10 -60 15 -79 5 -19 7 -38 4
-42 -2 -4 -1 -10 4 -13 5 -3 7 -19 6 -35 -1 -17 1 -31 5 -31 4 0 7 -10 8 -22
2 -22 19 -136 29 -185 2 -13 6 -35 9 -50 3 -16 8 -44 11 -63 4 -19 8 -42 9
-50 2 -16 15 -91 21 -125 2 -11 8 -46 14 -77 6 -32 13 -70 15 -85 12 -59 19
-109 19 -135 1 -16 4 -28 7 -28 4 0 9 -21 12 -47 3 -27 7 -57 10 -68 3 -11 10
-51 16 -90 17 -108 19 -120 22 -122 1 -2 2 -11 3 -20 1 -10 6 -38 10 -63 5
-25 10 -52 11 -60 1 -8 6 -35 11 -60 4 -25 8 -49 9 -55 9 -66 19 -115 24 -115
3 0 31 19 61 43 165 129 396 227 600 254 104 13 391 7 440 -11 8 -3 29 -7 45
-10 17 -2 52 -11 79 -20 l49 -15 -7 47 c-10 68 -13 83 -21 122 -4 19 -8 46
-10 60 -1 14 -5 36 -9 50 -3 14 -9 43 -12 65 -8 63 -12 81 -20 117 -4 18 -8
40 -9 48 -4 26 -15 95 -20 120 -3 14 -7 39 -10 55 -2 17 -6 39 -8 50 -6 25
-19 103 -23 130 -2 17 -17 100 -39 218 -10 55 -25 143 -30 182 -4 22 -8 48
-11 58 -3 10 -7 30 -9 45 -2 15 -9 51 -14 81 -6 29 -8 57 -5 62 3 5 0 9 -5 9
-6 0 -10 3 -9 8 2 8 -16 129 -22 142 -1 3 -3 21 -5 40 -2 19 -4 36 -5 38 -4 4
-7 18 -27 151 -2 18 -7 42 -9 52 -11 50 -19 94 -30 163 -3 21 -8 48 -10 60 -3
11 -7 37 -9 56 -3 19 -7 46 -10 60 -3 14 -8 39 -11 55 -2 17 -11 62 -18 100
-8 39 -14 77 -15 85 0 14 -14 88 -26 140 -3 14 -7 39 -9 55 -5 33 -14 87 -21
125 -3 14 -7 41 -11 60 -3 19 -12 71 -20 115 -8 44 -16 96 -19 115 -2 19 -7
46 -10 60 -4 13 -8 38 -11 55 -2 16 -6 41 -9 55 -4 14 -8 39 -11 55 -7 45 -24
137 -28 160 -12 61 -36 195 -41 230 -3 22 -7 47 -10 55 -2 8 -6 32 -9 53 -8
49 -18 109 -20 122 -4 15 -19 107 -22 130 -1 11 -3 20 -4 20 -2 0 -17 85 -26
145 -1 14 -5 36 -8 50 -4 14 -10 50 -16 80 -5 30 -14 82 -20 115 -6 33 -13 76
-15 95 -3 19 -8 46 -11 60 -7 28 -6 27 -29 155 -8 50 -18 104 -21 120 -3 17
-7 39 -9 50 -2 20 -10 64 -21 120 -3 17 -7 41 -8 55 -2 14 -6 34 -9 45 -3 11
-8 40 -12 65 -6 48 -13 85 -15 85 -1 0 -3 16 -6 35 -5 44 -10 71 -23 140 -7
30 -14 75 -17 99 -3 25 -7 47 -9 51 -2 3 -6 24 -9 46 -4 22 -9 51 -11 64 -3
14 -8 39 -10 55 -3 17 -10 55 -16 85 -6 30 -12 64 -13 75 -2 19 -13 84 -22
130 -7 34 -35 199 -39 225 -2 14 -7 36 -10 50 -3 14 -7 40 -10 59 -2 18 -6 41
-9 50 -3 9 -7 39 -11 66 -5 44 -19 77 -28 64 -9 -13 -68 -141 -83 -179 -10
-25 -22 -48 -26 -51 -5 -3 -10 -16 -11 -27 -1 -12 -5 -22 -9 -22 -4 0 -8 -9
-8 -19 0 -11 -7 -26 -15 -34 -8 -8 -11 -17 -8 -21 4 -3 2 -6 -4 -6 -5 0 -10
-6 -10 -12 0 -7 -23 -60 -50 -118 -54 -112 -82 -175 -103 -227 -7 -18 -16 -33
-20 -33 -3 0 -7 -6 -7 -12 0 -12 -31 -83 -93 -213 -57 -119 -100 -217 -100
-226 0 -5 -5 -9 -12 -9 -6 0 -8 -3 -5 -6 4 -4 0 -19 -8 -33 -7 -14 -25 -51
-39 -81 -13 -31 -40 -89 -59 -130 -19 -41 -47 -102 -62 -135 -15 -33 -45 -98
-66 -143 -22 -46 -39 -86 -39 -87 0 -2 -22 -50 -49 -107 -27 -57 -70 -150 -96
-208 -49 -109 -70 -155 -128 -280 -19 -41 -45 -97 -57 -125 -39 -88 -91 -199
-101 -217 -5 -10 -9 -25 -9 -33 0 -8 -4 -15 -8 -15 -8 0 -37 -71 -33 -79 2 -2
-3 -7 -11 -12 -7 -5 -13 -12 -14 -16 -1 -9 -16 -46 -44 -107 -11 -25 -20 -50
-20 -55 0 -6 -4 -11 -10 -11 -5 0 -10 -5 -10 -10 0 -6 -7 -27 -17 -48 -9 -20
-15 -40 -15 -44 1 -5 -3 -8 -8 -8 -6 0 -10 -5 -10 -11 0 -5 -12 -36 -27 -67
-15 -31 -27 -59 -28 -62 -2 -8 -54 -121 -83 -180 -15 -30 -27 -57 -27 -60 0
-3 -8 -21 -17 -40 -20 -42 -91 -196 -123 -265 -58 -126 -78 -170 -80 -175 -2
-8 -39 -87 -73 -160 -16 -36 -42 -92 -57 -125 -50 -110 -82 -179 -111 -240
-15 -33 -29 -62 -29 -65 -1 -3 -16 -36 -34 -75 -18 -38 -47 -101 -64 -140 -17
-38 -36 -73 -42 -77 -5 -4 -7 -8 -3 -8 4 0 -13 -42 -36 -92 -89 -190 -106
-230 -106 -239 0 -5 -5 -9 -12 -9 -6 0 -9 -2 -6 -6 3 -3 -27 -77 -68 -164 -41
-88 -74 -164 -74 -170 0 -5 -5 -10 -11 -10 -5 0 -8 -4 -4 -9 3 -5 0 -15 -7
-23 -7 -7 -13 -17 -13 -23 0 -5 -22 -54 -48 -108 -26 -54 -47 -99 -47 -101 0
-2 -23 -53 -51 -112 -64 -138 -83 -178 -107 -234 -11 -25 -41 -90 -67 -145
-60 -129 -69 -148 -67 -157 1 -5 -3 -8 -10 -8 -6 0 -9 -3 -5 -6 3 -3 -5 -26
-19 -50 -13 -24 -24 -45 -22 -46 1 -2 -3 -12 -9 -23 -6 -11 -13 -18 -16 -15
-5 7 -35 72 -147 324 -54 121 -112 251 -129 289 -17 37 -31 69 -31 71 0 2 -18
44 -40 93 -23 48 -45 97 -50 108 -5 11 -26 56 -46 100 -40 89 -57 128 -58 135
-1 3 -9 21 -18 40 -9 19 -26 58 -38 85 -12 28 -34 75 -47 105 -14 30 -42 93
-63 140 -21 47 -49 111 -64 142 -14 31 -26 62 -26 67 0 6 -4 11 -8 11 -5 0 -9
6 -9 13 0 6 -44 109 -98 227 -53 118 -103 229 -110 245 -39 87 -73 163 -127
285 -77 175 -95 216 -121 269 -12 25 -22 47 -23 50 0 6 -15 41 -54 126 -47
103 -94 208 -154 345 -26 58 -56 124 -66 148 -19 40 -32 68 -80 177 -12 28
-40 91 -61 140 -22 50 -46 102 -54 117 -8 14 -15 33 -15 41 0 8 -7 20 -15 27
-8 7 -15 18 -15 26 0 7 -14 44 -31 81 -89 193 -131 288 -130 291 1 1 -12 29
-29 62 -17 33 -30 62 -30 65 0 3 -14 35 -31 72 -17 38 -48 106 -69 153 -34 78
-50 113 -101 225 -10 22 -36 81 -57 130 -22 50 -54 120 -71 158 -17 37 -31 70
-31 73 0 2 -16 36 -35 74 -19 39 -34 73 -34 75 0 3 -14 35 -31 71 -16 36 -30
67 -30 69 0 3 -22 52 -81 180 -13 28 -24 52 -24 55 -1 3 -9 21 -18 40 -103
229 -372 831 -380 853 -13 31 -38 37 -32 7z m545 -4302 c55 -121 64 -143 62
-150 -1 -5 3 -8 8 -8 5 0 9 -3 8 -7 -1 -5 4 -19 9 -33 17 -40 194 -439 231
-520 9 -19 17 -37 17 -40 1 -3 11 -25 22 -50 11 -25 37 -83 58 -130 46 -105
66 -151 95 -215 12 -27 30 -68 40 -90 43 -98 61 -138 82 -182 12 -27 22 -50
23 -53 1 -5 16 -38 53 -120 9 -19 16 -37 17 -40 3 -9 23 -55 53 -120 16 -36
47 -103 67 -150 21 -47 44 -101 53 -120 9 -19 16 -37 17 -40 1 -3 11 -25 22
-50 27 -59 102 -228 116 -260 5 -14 10 -28 9 -32 -1 -5 2 -8 8 -8 5 0 10 -5
10 -10 0 -9 102 -247 169 -393 12 -26 55 -122 95 -214 106 -242 117 -266 127
-286 8 -16 3 -17 -53 -17 -35 0 -70 -1 -78 -1 -8 -1 -69 -1 -135 0 -66 0 -128
0 -137 0 -22 0 -462 0 -485 0 -32 1 -198 0 -208 0 -5 -1 -64 -1 -130 0 -66 0
-128 0 -137 0 -22 0 -461 0 -485 0 -10 0 -78 0 -151 0 -124 0 -133 2 -128 18
2 10 7 36 10 58 6 39 10 63 22 115 3 14 7 43 10 65 2 21 9 55 14 75 5 19 12
58 16 85 3 28 8 52 9 55 6 9 18 94 18 118 -1 12 2 22 6 22 4 0 7 10 8 23 1 23
8 67 16 103 3 12 8 39 12 60 3 22 8 53 11 69 6 31 9 45 19 105 3 19 15 82 25
140 11 58 22 121 25 140 3 19 8 42 10 50 2 8 6 31 9 50 10 64 24 143 32 180 2
8 6 35 9 59 4 25 8 47 10 51 2 3 6 24 9 46 4 22 9 51 11 64 9 46 37 205 41
235 3 17 7 41 11 55 3 14 7 39 9 55 2 17 6 41 10 55 3 14 8 35 10 48 2 12 6
34 9 50 3 15 8 41 10 58 3 18 12 67 21 110 8 44 16 88 18 99 5 34 18 109 23
130 2 11 6 31 8 45 1 14 5 35 8 46 3 12 8 39 11 60 13 83 19 110 28 128 7 13
7 16 -1 12 -8 -5 -8 0 -1 19 5 14 9 29 9 33 -1 4 0 9 1 12 3 10 19 93 25 140
2 14 13 76 24 139 12 62 21 117 21 122 0 27 21 0 50 -63z"/>
</g>
</svg>
